<svg width="30" height="32" viewBox="0 0 30 32" fill="none" xmlns="http://www.w3.org/2000/svg">
<path d="M22.159 21.8182C23.8595 19.5425 24.8863 16.2516 24.8863 13.0909C24.8863 5.78182 19.337 0 12.6135 0C5.88946 0 0.34082 5.78182 0.34082 13.0909C0.34082 20.4 5.88946 26.1818 12.6135 26.1818C15.4724 26.1818 18.036 25.0662 20.1135 23.2727L27.6135 32L29.659 29.8182L22.159 21.8182ZM12.6135 23.2727C7.39218 23.2727 3.06809 18.7665 3.06809 13.0909C3.06809 7.41527 7.39218 2.90909 12.6135 2.90909C17.8349 2.90909 22.159 7.41527 22.159 13.0909C22.159 18.7665 17.8349 23.2727 12.6135 23.2727Z" fill="black"/>
</svg>
